# xmcd
#
# Track frame offsets: 
#        150
#        23894
#        42504
#        57240
#        73858
#        93684
#        111289
#        130422
#        151001
#        166568
#        182074
#        191340
#        208596
#        221421
#        238883
#        247428
#        265175
#        288983
#
# Disc length: 4238 seconds
#
# Revision: 78
# Processed by: cddbd v1.5.2PL0 Copyright (c) Steve Scherf et al.
# Submitted via: ExactAudioCopyFreeDBPlugin 1.0
#
DISCID=0f108c12
DTITLE=Various Artist - Skandalingiausios Dainos
DYEAR=2003
DGENRE=Pop
TTITLE0=Sel - Kontrolinis Šūvis (1995 M.)
TTITLE1=G&G Sindikatas - Vokiečių Gatvė (2002 M.)
TTITLE2=Cisko Kid - Kas Nešokinės (2002 M.)
TTITLE3=Tu Mano Mergytė (2001 M.)
TTITLE4=Žas - Ne Pieną Gėręs, Ne Nuo Pieno Ir Mirsi (1996 M.)
TTITLE5=Svastikos Sukitės Greitai - Atbėgo Kariūnai, Sušaudė Brazauską
TTITLE5=(1994 M.)
TTITLE6=Requiem - Aš Nupirksiu Tau Namą (1999 M.)
TTITLE7=Gimtadienis - Su Kitu Bachūru (1993 M.)
TTITLE8=Sel - Čiulpk Tu (1993 M.)
TTITLE9=Šara - Mokyklos Dainelė (1996 M.)
TTITLE10=Radioshow - Sukėliau Aš Muštynes (2000 M.)
TTITLE11=Requiem - Skandalas (2001 M.)
TTITLE12=Žas - Debilas Ir Bažnyčioje Debilas (1993 M.)
TTITLE13=Svastikos Sukitės Greitai - Gražiausia Mano Draugo Suknelė (1
TTITLE13=994 M.)
TTITLE14=Pompa - Mes Jau Nebe Vaikai (1992 M.)
TTITLE15=Šara - Džipas Nutrenkė Bobutę (1996 M.)
TTITLE16=XXL - Duok Į Snukį (1995 M.)
TTITLE17=Dancebergis - Mieli Tautiečiai (1991 M.)
EXTD=
EXTT0=
EXTT1=
EXTT2=
EXTT3=
EXTT4=
EXTT5=
EXTT6=
EXTT7=
EXTT8=
EXTT9=
EXTT10=
EXTT11=
EXTT12=
EXTT13=
EXTT14=
EXTT15=
EXTT16=
EXTT17=
PLAYORDER=
